<?xml version="1.0" encoding="UTF-8"?>
<svg width="10px" height="18px" viewBox="0 0 10 18" version="1.1" xmlns="http://www.w3.org/2000/svg" xmlns:xlink="http://www.w3.org/1999/xlink">
    <!-- Generator: sketchtool 51.3 (57544) - http://www.bohemiancoding.com/sketch -->
    <title>1D3DFCB4-15D0-4977-B5B0-EDA4E6C5A387@2x</title>
    <desc>Created with sketchtool.</desc>
    <defs></defs>
    <g id="Page-1" stroke="none" stroke-width="1" fill="none" fill-rule="evenodd">
        <g id="Desktop-isolated" transform="translate(-1069.000000, -215.000000)" fill="#FFFFFF">
            <g id="Footer">
                <g id="logo-copyright-social" transform="translate(1067.000000, 100.000000)">
                    <g id="Social" transform="translate(2.000000, 115.000000)">
                        <path d="M2.70703125,18 L2.70703125,9.94921875 L0,9.94921875 L0,6.75 L2.70703125,6.75 L2.70703125,4.21875 C2.70703125,2.8828125 3.08203143,1.84570312 3.83203125,1.10742188 C4.58203107,0.369140625 5.57812518,0 6.8203125,0 C7.82812518,0 8.6484375,0.0468748212 9.28125,0.140625 L9.28125,2.98828125 L7.59375,2.98828125 C6.9609375,2.98828125 6.52734393,3.12890625 6.29296875,3.41015625 C6.10546893,3.64453143 6.01171875,4.01953107 6.01171875,4.53515625 L6.01171875,6.75 L9,6.75 L8.578125,9.94921875 L6.01171875,9.94921875 L6.01171875,18 L2.70703125,18 Z" id="Facebook"></path>
                    </g>
                </g>
            </g>
        </g>
    </g>
</svg>