<?xml version="1.0" encoding="UTF-8"?>
<svg width="17px" height="16px" viewBox="0 0 17 16" version="1.1" xmlns="http://www.w3.org/2000/svg" xmlns:xlink="http://www.w3.org/1999/xlink">
    <!-- Generator: sketchtool 51.3 (57544) - http://www.bohemiancoding.com/sketch -->
    <title>DC0D358A-FAFF-4BBD-8FE2-0D6A50BD59DF@2x</title>
    <desc>Created with sketchtool.</desc>
    <defs></defs>
    <g id="Page-1" stroke="none" stroke-width="1" fill="none" fill-rule="evenodd">
        <g id="Desktop-isolated" transform="translate(-1281.000000, -216.000000)" fill="#FFFFFF">
            <g id="Footer">
                <g id="logo-copyright-social" transform="translate(1067.000000, 100.000000)">
                    <g id="Social" transform="translate(2.000000, 115.000000)">
                        <path d="M220.412075,4.71037946 C221.115573,4.71037946 221.768009,4.88625389 222.369386,5.23800223 C222.970762,5.58975057 223.447325,6.06631307 223.799073,6.66768973 C224.150822,7.26906639 224.326696,7.9215028 224.326696,8.625 C224.326696,9.3284972 224.150822,9.98093361 223.799073,10.5823103 C223.447325,11.1836869 222.970762,11.6602494 222.369386,12.0119978 C221.768009,12.3637461 221.115573,12.5396205 220.412075,12.5396205 C219.708578,12.5396205 219.056142,12.3637461 218.454765,12.0119978 C217.853388,11.6602494 217.376826,11.1836869 217.025078,10.5823103 C216.673329,9.98093361 216.497455,9.3284972 216.497455,8.625 C216.497455,7.9215028 216.673329,7.26906639 217.025078,6.66768973 C217.376826,6.06631307 217.853388,5.58975057 218.454765,5.23800223 C219.056142,4.88625389 219.708578,4.71037946 220.412075,4.71037946 Z M220.412075,11.1780134 C221.115573,11.1780134 221.716949,10.9283856 222.216205,10.4291295 C222.715461,9.92987334 222.965089,9.3284972 222.965089,8.625 C222.965089,7.9215028 222.715461,7.32012666 222.216205,6.82087054 C221.716949,6.32161441 221.115573,6.07198661 220.412075,6.07198661 C219.708578,6.07198661 219.107202,6.32161441 218.607946,6.82087054 C218.10869,7.32012666 217.859062,7.9215028 217.859062,8.625 C217.859062,9.3284972 218.10869,9.92987334 218.607946,10.4291295 C219.107202,10.9283856 219.708578,11.1780134 220.412075,11.1780134 Z M225.415982,4.54017857 C225.393288,4.78980637 225.296841,5.00539452 225.12664,5.18694196 C224.956439,5.36848941 224.746525,5.45926339 224.496897,5.45926339 C224.247269,5.45926339 224.031681,5.36848941 223.850133,5.18694196 C223.668586,5.00539452 223.577812,4.78980637 223.577812,4.54017857 C223.577812,4.29055077 223.668586,4.07496262 223.850133,3.89341518 C224.031681,3.71186773 224.247269,3.62109375 224.496897,3.62109375 C224.746525,3.62109375 224.962113,3.71186773 225.14366,3.89341518 C225.325208,4.07496262 225.415982,4.29055077 225.415982,4.54017857 Z M228.003035,5.45926339 C228.025729,6.09468023 228.037075,7.14992577 228.037075,8.625 C228.037075,10.1000742 228.020055,11.1609933 227.986015,11.8077567 C227.951975,12.4545201 227.855528,13.016183 227.696674,13.4927455 C227.492433,14.060082 227.180397,14.5536646 226.760569,14.9734933 C226.34074,15.393322 225.847157,15.7053571 225.279821,15.9095982 C224.803258,16.0684526 224.241595,16.1648996 223.594832,16.1989397 C222.948069,16.2329799 221.88715,16.25 220.412075,16.25 C218.937001,16.25 217.876082,16.2329799 217.229319,16.1989397 C216.582555,16.1648996 216.020892,16.0571055 215.54433,15.875558 C214.976993,15.6940106 214.483411,15.393322 214.063582,14.9734933 C213.643753,14.5536646 213.331718,14.060082 213.127477,13.4927455 C212.968623,13.016183 212.872176,12.4545201 212.838136,11.8077567 C212.804095,11.1609933 212.787075,10.1000742 212.787075,8.625 C212.787075,7.14992577 212.804095,6.0890067 212.838136,5.4422433 C212.872176,4.79547991 212.968623,4.23381696 213.127477,3.75725446 C213.331718,3.18991798 213.643753,2.69633539 214.063582,2.2765067 C214.483411,1.856678 214.976993,1.54464286 215.54433,1.34040179 C216.020892,1.18154745 216.582555,1.08510045 217.229319,1.05106027 C217.876082,1.01702009 218.937001,1 220.412075,1 C221.88715,1 222.948069,1.01702009 223.594832,1.05106027 C224.241595,1.08510045 224.803258,1.18154745 225.279821,1.34040179 C225.847157,1.54464286 226.34074,1.856678 226.760569,2.2765067 C227.180397,2.69633539 227.492433,3.18991798 227.696674,3.75725446 C227.855528,4.23381696 227.957648,4.80115345 228.003035,5.45926339 Z M226.369107,13.1183036 C226.505267,12.7325151 226.596041,12.1197918 226.641428,11.2801339 C226.664122,10.7808778 226.675468,10.0773811 226.675468,9.16964286 L226.675468,8.08035714 C226.675468,7.14992577 226.664122,6.44642857 226.641428,5.96986607 C226.596041,5.10751505 226.505267,4.49479184 226.369107,4.13169643 C226.096785,3.42819923 225.608876,2.94029018 224.905379,2.66796875 C224.542284,2.53180804 223.92956,2.44103405 223.067209,2.39564732 C222.567953,2.3729537 221.864457,2.36160714 220.956718,2.36160714 L219.867433,2.36160714 C218.959694,2.36160714 218.256198,2.3729537 217.756941,2.39564732 C216.917284,2.44103405 216.30456,2.53180804 215.918772,2.66796875 C215.215275,2.94029018 214.727366,3.42819923 214.455044,4.13169643 C214.318883,4.49479184 214.228109,5.10751505 214.182723,5.96986607 C214.160029,6.4691222 214.148683,7.17261887 214.148683,8.08035714 L214.148683,9.16964286 C214.148683,10.0773811 214.160029,10.7808778 214.182723,11.2801339 C214.228109,12.1197918 214.318883,12.7325151 214.455044,13.1183036 C214.750059,13.8218008 215.237968,14.3097098 215.918772,14.5820313 C216.30456,14.718192 216.917284,14.8089659 217.756941,14.8543527 C218.256198,14.8770463 218.959694,14.8883929 219.867433,14.8883929 L220.956718,14.8883929 C221.88715,14.8883929 222.590647,14.8770463 223.067209,14.8543527 C223.92956,14.8089659 224.542284,14.718192 224.905379,14.5820313 C225.608876,14.2870162 226.096785,13.7991071 226.369107,13.1183036 Z" id="instagram"></path>
                    </g>
                </g>
            </g>
        </g>
    </g>
</svg>