<?xml version="1.0" encoding="UTF-8"?>
<svg width="16px" height="16px" viewBox="0 0 16 16" version="1.1" xmlns="http://www.w3.org/2000/svg" xmlns:xlink="http://www.w3.org/1999/xlink">
    <!-- Generator: sketchtool 51.3 (57544) - http://www.bohemiancoding.com/sketch -->
    <title>988E5E4E-E893-4651-ACB5-5ACB0DA39E6A@2x</title>
    <desc>Created with sketchtool.</desc>
    <defs></defs>
    <g id="Page-1" stroke="none" stroke-width="1" fill="none" fill-rule="evenodd">
        <g id="Desktop-isolated" transform="translate(-1213.000000, -216.000000)" fill="#FFFFFF">
            <g id="Footer">
                <g id="logo-copyright-social" transform="translate(1067.000000, 100.000000)">
                    <g id="Social" transform="translate(2.000000, 115.000000)">
                        <path d="M147.516454,16.25 L144.350717,16.25 L144.350717,6.07198661 L147.516454,6.07198661 L147.516454,16.25 Z M145.950605,4.67633929 C145.451349,4.67633929 145.020174,4.49479184 144.657079,4.13169643 C144.293983,3.76860102 144.112436,3.33742577 144.112436,2.83816964 C144.112436,2.33891352 144.293983,1.90773827 144.657079,1.54464286 C145.020174,1.18154745 145.451349,1 145.950605,1 C146.449862,1 146.881037,1.18154745 147.244132,1.54464286 C147.607228,1.90773827 147.788775,2.33891352 147.788775,2.83816964 C147.788775,3.33742577 147.607228,3.76860102 147.244132,4.13169643 C146.881037,4.49479184 146.449862,4.67633929 145.950605,4.67633929 Z M159.362436,16.25 L156.196699,16.25 L156.196699,11.2801339 C156.196699,10.4631696 156.128619,9.87314005 155.992458,9.51004464 C155.74283,8.89732143 155.254921,8.59095982 154.52873,8.59095982 C153.80254,8.59095982 153.291937,8.86328125 152.996922,9.40792411 C152.769988,9.81640625 152.656521,10.4177829 152.656521,11.2120536 L152.656521,16.25 L149.524824,16.25 L149.524824,6.07198661 L152.5544,6.07198661 L152.5544,7.46763393 L152.58844,7.46763393 C152.815375,7.01376505 153.17847,6.63932309 153.677726,6.34430804 C154.222369,5.98121262 154.857786,5.79966518 155.583976,5.79966518 C157.05905,5.79966518 158.091603,6.26488113 158.681632,7.1953125 C159.135501,7.94419643 159.362436,9.1015625 159.362436,10.6674107 L159.362436,16.25 Z" id="linkedin"></path>
                    </g>
                </g>
            </g>
        </g>
    </g>
</svg>