<?xml version="1.0" encoding="UTF-8"?>
<svg width="14px" height="18px" viewBox="0 0 14 18" version="1.1" xmlns="http://www.w3.org/2000/svg" xmlns:xlink="http://www.w3.org/1999/xlink">
    <!-- Generator: sketchtool 51.3 (57544) - http://www.bohemiancoding.com/sketch -->
    <title>8D43F706-43C8-46C7-ADFA-CF47FD0F26A6@2x</title>
    <desc>Created with sketchtool.</desc>
    <defs></defs>
    <g id="Page-1" stroke="none" stroke-width="1" fill="none" fill-rule="evenodd">
        <g id="Desktop-isolated" transform="translate(-1248.000000, -215.000000)" fill="#FFFFFF">
            <g id="Footer">
                <g id="logo-copyright-social" transform="translate(1067.000000, 100.000000)">
                    <g id="Social" transform="translate(2.000000, 115.000000)">
                        <path d="M186.494276,0 C187.589689,0.0233068439 188.621009,0.273853148 189.588235,0.75163998 C190.555462,1.22942681 191.318755,1.88783995 191.878115,2.72687993 C192.484089,3.6358399 192.787075,4.65550672 192.787075,5.78587985 C192.787075,6.91625297 192.600622,7.98253295 192.227715,8.98471976 C191.808195,10.0801329 191.213875,10.9424797 190.444755,11.5717597 C189.582409,12.2709597 188.568569,12.6205597 187.403236,12.6205597 C186.937102,12.6205597 186.470969,12.5098528 186.004836,12.2884397 C185.538702,12.0670265 185.200756,11.7582128 184.990996,11.3619997 L184.711316,12.4807197 C184.408329,13.6926665 184.163609,14.5317065 183.977156,14.9978396 C183.697476,15.6271196 183.196383,16.4311996 182.473876,17.4100795 L182.334036,17.4799995 L182.229156,17.3751195 L182.194196,16.8507196 C182.124276,16.1981327 182.089316,15.7086927 182.089316,15.3823996 C182.089316,14.6831996 182.205849,13.7742396 182.438916,12.6555197 C182.578756,12.0029328 182.811823,11.0357066 183.138116,9.75383974 L183.557636,8.07575979 C183.324569,7.63293296 183.208036,7.05026666 183.208036,6.32775983 C183.208036,5.6518667 183.382836,5.09250671 183.732436,4.64967988 C184.035422,4.27677304 184.408329,4.04370674 184.851156,3.9504799 C185.293982,3.85725305 185.678542,3.93882674 186.004836,4.19519989 C186.331129,4.45157304 186.494276,4.85943987 186.494276,5.41879986 C186.494276,5.72178669 186.447662,6.059733 186.354436,6.43263983 C186.307822,6.64239983 186.202942,6.96869297 186.039796,7.41151981 C185.876649,7.85434664 185.771769,8.18063979 185.725156,8.39039978 C185.631929,8.76330661 185.585316,9.08959976 185.585316,9.36927975 C185.585316,9.81210659 185.742636,10.1791866 186.057276,10.4705197 C186.371916,10.7618529 186.750649,10.9075197 187.193476,10.9075197 C187.939289,10.9075197 188.568569,10.5812266 189.081316,9.92863974 C189.524142,9.3925866 189.850435,8.67007977 190.060195,7.7611198 C190.246649,7.01530666 190.339875,6.28114668 190.339875,5.55863985 C190.339875,4.34669304 189.961142,3.40277307 189.203675,2.72687993 C188.446209,2.05098679 187.449849,1.71303996 186.214596,1.71303996 C185.305636,1.71303996 184.472422,1.92279995 183.714956,2.34231994 C182.957489,2.76183993 182.368996,3.33285307 181.949476,4.05535989 C181.529956,4.77786672 181.320196,5.60525301 181.320196,6.53751983 C181.320196,6.93373297 181.390116,7.31829296 181.529956,7.6911998 C181.599876,7.90095979 181.728063,8.15733294 181.914516,8.46031978 C182.054356,8.69338662 182.124276,8.84487977 182.124276,8.91479977 C182.124276,9.10125292 182.077663,9.33431976 181.984436,9.61399975 C181.867903,9.96359974 181.739716,10.1383997 181.599876,10.1383997 C181.296889,10.1383997 180.970596,9.98107974 180.620996,9.66643975 C180.271396,9.35179976 179.980063,8.92645292 179.746996,8.39039978 C179.490623,7.7611198 179.362436,7.06191982 179.362436,6.29279984 C179.362436,5.03423987 179.712036,3.9155199 180.411236,2.93663992 C181.063823,2.02767995 181.937823,1.31099997 183.033236,0.786599979 C184.128649,0.262199993 185.282329,0 186.494276,0 Z" id="pinterest"></path>
                    </g>
                </g>
            </g>
        </g>
    </g>
</svg>