<?xml version="1.0" encoding="UTF-8"?>
<svg width="18px" height="14px" viewBox="0 0 18 14" version="1.1" xmlns="http://www.w3.org/2000/svg" xmlns:xlink="http://www.w3.org/1999/xlink">
    <!-- Generator: sketchtool 51.3 (57544) - http://www.bohemiancoding.com/sketch -->
    <title>24F96CFB-B534-4CCB-810C-D79E84819381@2x</title>
    <desc>Created with sketchtool.</desc>
    <defs></defs>
    <g id="Page-1" stroke="none" stroke-width="1" fill="none" fill-rule="evenodd">
        <g id="Desktop-isolated" transform="translate(-1098.000000, -217.000000)" fill="#FFFFFF">
            <g id="Footer">
                <g id="logo-copyright-social" transform="translate(1067.000000, 100.000000)">
                    <g id="Social" transform="translate(2.000000, 115.000000)">
                        <path d="M44.5849278,5.46749997 C44.6071555,5.5564104 44.6182691,5.70088939 44.6182691,5.90093747 C44.6182691,7.50132207 44.2292866,9.04613759 43.451322,10.5353845 C42.6511297,12.1135414 41.5286375,13.3693989 40.0838461,14.3029566 C38.5056892,15.347652 36.6941424,15.8699999 34.6492067,15.8699999 C32.6931809,15.8699999 30.9038623,15.347652 29.28125,14.3029566 C29.525753,14.3251844 29.8035979,14.336298 30.1147836,14.336298 C31.737396,14.336298 33.1933011,13.8361778 34.4825,12.8359374 C33.7045354,12.8359374 33.0210378,12.6081051 32.4320072,12.1524398 C31.8429766,11.6967746 31.4373239,11.1244152 31.2150481,10.4353605 C31.4373239,10.4575882 31.6484856,10.4687019 31.8485336,10.4687019 C32.1597194,10.4687019 32.4709056,10.4353605 32.7820913,10.3686778 C31.981899,10.1908575 31.3150721,9.7796472 30.7816106,9.13504802 C30.248149,8.49044883 29.9814183,7.75693922 29.9814183,6.93451919 L29.9814183,6.8678365 C30.4704248,7.156795 30.9927723,7.31238761 31.5484615,7.33461534 C31.0816827,7.00120188 30.7038143,6.578878 30.4148558,6.0676442 C30.1258973,5.5564104 29.9814183,4.99516407 29.9814183,4.38390623 C29.9814183,3.77264839 30.148125,3.18917484 30.4815385,2.63348557 C31.3484134,3.72263637 32.4097795,4.58951137 33.665637,5.23411055 C34.9214945,5.87870973 36.2607049,6.23435093 37.6832692,6.30103362 C37.6388142,6.03430285 37.6165865,5.76757208 37.6165865,5.50084132 C37.6165865,4.87846936 37.7721796,4.29499581 38.0833653,3.75042066 C38.394551,3.20584551 38.8168749,2.77796457 39.3503365,2.46677884 C39.883798,2.15559312 40.4617145,2 41.0840864,2 C41.5953202,2 42.0676561,2.10002404 42.5010936,2.30007211 C42.9345311,2.50012019 43.3179566,2.76685096 43.6513701,3.10026441 C44.4515624,2.9446713 45.1961856,2.66682692 45.8852402,2.26673077 C45.6185095,3.0891508 45.1072757,3.73374999 44.3515383,4.20052883 C45.0183653,4.1116184 45.6851922,3.92268445 46.3520191,3.63372595 C45.8630125,4.34500782 45.2739824,4.95626617 44.5849278,5.46749997 Z" id="Twitter"></path>
                    </g>
                </g>
            </g>
        </g>
    </g>
</svg>