<?xml version="1.0" encoding="UTF-8"?>
<svg width="19px" height="13px" viewBox="0 0 19 13" version="1.1" xmlns="http://www.w3.org/2000/svg" xmlns:xlink="http://www.w3.org/1999/xlink">
    <!-- Generator: sketchtool 51.3 (57544) - http://www.bohemiancoding.com/sketch -->
    <title>3B68A372-70A3-4FBE-AF50-945121FDFE70@2x</title>
    <desc>Created with sketchtool.</desc>
    <defs></defs>
    <g id="Page-1" stroke="none" stroke-width="1" fill="none" fill-rule="evenodd">
        <g id="Desktop-isolated" transform="translate(-1175.000000, -218.000000)" fill="#FFFFFF">
            <g id="Footer">
                <g id="logo-copyright-social" transform="translate(1067.000000, 100.000000)">
                    <g id="Social" transform="translate(2.000000, 115.000000)">
                        <path d="M123.754363,4.953125 C123.906273,5.5390625 124.01478,6.42881928 124.079884,7.62239583 L124.112436,9.25 L124.079884,10.8776042 C124.01478,12.0928818 123.906273,12.9934896 123.754363,13.5794271 C123.645856,13.9483505 123.450544,14.2738714 123.168425,14.5559896 C122.886307,14.8381078 122.549936,15.0334203 122.159311,15.1419271 C121.595075,15.293837 120.27129,15.4023438 118.187957,15.4674479 L115.225717,15.5 L112.263477,15.4674479 C110.180144,15.4023438 108.856359,15.293837 108.292123,15.1419271 C107.901498,15.0334203 107.565127,14.8381078 107.283009,14.5559896 C107.00089,14.2738714 106.805578,13.9483505 106.697071,13.5794271 C106.545161,12.9934896 106.436655,12.0928818 106.37155,10.8776042 L106.338998,9.25 C106.338998,8.77256928 106.349849,8.23003489 106.37155,7.62239583 C106.436655,6.42881928 106.545161,5.5390625 106.697071,4.953125 C106.805578,4.5625 107.00089,4.22612864 107.283009,3.94401042 C107.565127,3.6618922 107.901498,3.4665797 108.292123,3.35807292 C108.856359,3.20616303 110.180144,3.09765625 112.263477,3.03255208 L115.225717,3 L118.187957,3.03255208 C120.27129,3.09765625 121.595075,3.20616303 122.159311,3.35807292 C122.549936,3.4665797 122.886307,3.6618922 123.168425,3.94401042 C123.450544,4.22612864 123.645856,4.5625 123.754363,4.953125 Z M113.4028,11.9192708 L118.057748,9.25 L113.4028,6.61328125 L113.4028,11.9192708 Z" id="YouTube"></path>
                    </g>
                </g>
            </g>
        </g>
    </g>
</svg>